<?xml version="1.0" standalone="no"?><!DOCTYPE svg PUBLIC "-//W3C//DTD SVG 1.1//EN" "http://www.w3.org/Graphics/SVG/1.1/DTD/svg11.dtd"><svg class="icon" width="32px" height="32.00px" viewBox="0 0 1024 1024" version="1.1" xmlns="http://www.w3.org/2000/svg"><path d="M473.536 192A345.92 345.92 0 0 0 128 537.536V896h704V550.464A358.912 358.912 0 0 0 473.536 192zM768 832H384V512H320v320H192V537.536A281.856 281.856 0 0 1 473.536 256 294.784 294.784 0 0 1 768 550.464V832z m192 128v64H0v-64h960zM512 128H448V0h64v128zM180.288 244.032l-77.248-96 49.92-40.064 77.248 96-49.92 40.064z m593.344 0.832l-48.512-41.728 82.624-96 48.512 41.728-82.624 96z"  /></svg>