<?xml version="1.0" standalone="no"?><!DOCTYPE svg PUBLIC "-//W3C//DTD SVG 1.1//EN" "http://www.w3.org/Graphics/SVG/1.1/DTD/svg11.dtd"><svg class="icon" width="32px" height="32.00px" viewBox="0 0 1024 1024" version="1.1" xmlns="http://www.w3.org/2000/svg"><path d="M418.506983 568.934167l79.768858 113.427041a17.106052 17.106052 0 0 0 27.984834 0l79.768858-113.427041c60.152239-33.90801 97.33873-97.331563 97.33873-166.526757 0-105.37111-85.726847-191.097957-191.100005-191.097957s-191.100005 85.726847-191.100005 191.097957c0 69.19417 37.186491 132.617723 97.33873 166.526757z m93.761275-323.411586c86.507047 0 156.886877 70.377782 156.886877 156.884829 0 57.941671-31.772186 110.963572-82.91833 138.369911a17.091718 17.091718 0 0 0-5.913961 5.237173l-68.054586 96.768426-68.054586-96.768426a17.10298 17.10298 0 0 0-5.913962-5.237173c-51.146144-27.406338-82.918329-80.42824-82.918329-138.369911 0-86.508071 70.379829-156.884829 156.886877-156.884829z m0 242.5441c47.644456 0 86.406706-38.762251 86.406706-86.408755 0-47.644456-38.761227-86.406706-86.406706-86.406706s-86.406706 38.761227-86.406706 86.406706c0 47.647527 38.762251 86.408754 86.406706 86.408755z m0-138.601309c28.778345 0 52.193578 23.41421 52.193578 52.193578 0 28.780393-23.41421 52.195626-52.193578 52.195626s-52.193578-23.415233-52.193578-52.195626c0-28.779369 23.415233-52.193578 52.193578-52.193578z m330.826563 455.09143c-3.027629 5.402019-8.733742 8.015998-14.924152 8.015998H196.364823c-6.190411 0-11.896524-2.613979-14.924152-8.015998-3.024557-5.398947-2.897595-11.647719 0.333786-16.92892l103.317197-169.708993c3.107492-5.078471 8.635449-9.098245 14.589342-9.098245h105.384421c9.448414 0 17.107076 7.957637 17.107076 17.406051s-7.657638 17.406051-17.107076 17.40605H309.267634l-82.374646 134.128978H797.640456l-82.374646-134.128978h-95.796759c-9.448414 0-17.107076-7.957637-17.107076-17.40605s7.657638-17.406051 17.107076-17.406051h105.384421c5.953893 0 11.482874 4.202025 14.589342 9.280497l103.317197 168.973843c3.232406 5.281201 3.359368 12.082871 0.33481 17.481818z" fill="#272636" /></svg>