<?xml version="1.0" standalone="no"?><!DOCTYPE svg PUBLIC "-//W3C//DTD SVG 1.1//EN" "http://www.w3.org/Graphics/SVG/1.1/DTD/svg11.dtd"><svg t="1513318144252" class="icon" style="" viewBox="0 0 1365 1024" version="1.1" xmlns="http://www.w3.org/2000/svg" p-id="57618" xmlns:xlink="http://www.w3.org/1999/xlink" width="42.65625" height="32"><defs><style type="text/css"></style></defs><path d="M842.955093 642.993493c5.16096 4.420267 11.805013 7.191893 19.141974 7.191894 16.13312 0 29.20448-12.878507 29.20448-28.7232 0.023893-9.521493-4.75648-17.92512-12.069547-23.156054 0.047787-0.10752 0.047787-0.24064 0.047787-0.324266-29.083307-21.51936-59.697493-36.324693-88.66304-46.455467 69.30432-42.0864 116.48-116.036267 116.48-203.076267 0-132.002133-109.093547-236.43648-241.800534-236.43648-132.681387 0-241.752747 105.91744-241.752746 237.89568 0 85.5808 45.692587 160.96256 114.998613 201.618774-199.022933 71.06048-216.70912 272.662187-216.70912 275.57888-1.483093 15.940267 10.299733 30.434987 26.52672 30.434986 16.203093 1.457493 30.946987-10.134187 32.428373-26.120533 0-10.159787 22.104747-230.616747 281.54368-245.121707 6.4768 0 99.892907-3.4048 180.52608 56.733014 0.049493-0.013653 0.07168-0.039253 0.09728-0.039254z m-177.65888-114.699946c-100.22912 0-182.772053-79.747413-182.772053-179.843414 0-100.084053 82.54464-178.41152 182.772053-178.41152 100.276907 0 182.795947 79.771307 182.795947 179.858774 0.001707 100.072107-82.51904 178.39616-182.795947 178.39616z m348.48256 98.757973c-4.922027-1.240747-10.038613-1.995093-15.438506-1.995093-31.54432 0-57.499307 26.22976-57.499307 58.693973 0 26.492587 17.349973 48.991573 40.86784 56.221013-17.6384 29.47584-41.895253 54.714027-70.78912 72.94976-8.792747-20.732587-29.1072-35.2256-52.862293-35.2256-31.78496 0-57.5232 26.2144-57.5232 58.702507 0 3.749547 0.24064 7.493973 1.24416 11.00288 4.898133 26.97216 27.88864 47.450453 55.565653 47.70304 15.767893 0 24.470187-4.194987 32.211627-6.99392 83.26144-30.12096 144.96768-100.491947 163.872426-186.856107 0.786773-3.75296 2.435413-11.603627 2.435414-17.506986-0.001707-26.965333-17.89952-49.687893-42.084694-56.695467z" p-id="57619"></path></svg>