<?xml version="1.0" standalone="no"?><!DOCTYPE svg PUBLIC "-//W3C//DTD SVG 1.1//EN" "http://www.w3.org/Graphics/SVG/1.1/DTD/svg11.dtd"><svg class="icon" width="32px" height="31.81px" viewBox="0 0 1030 1024" version="1.1" xmlns="http://www.w3.org/2000/svg"><path d="M961.312 189.502h-122.07V91.156C839.243 46.297 816.383 0 771.667 0H283.821c-44.859 0-94.32 46.297-94.32 91.156v98.346H94.177c-44.86 0-94.176 46.584-94.176 91.3v298.2c0 44.859 49.316 70.74 94.176 70.74h95.326v303.806c0 44.86 49.46 70.452 94.32 70.452h487.844c44.86 0 67.577-25.593 67.577-70.452V649.74h122.069c44.86 0 68.583-26.024 68.583-70.74V280.946c0-44.86-23.724-91.444-68.583-91.444zM243.707 91.156c0-14.953 25.161-38.245 40.114-38.245h487.845c14.953 0 13.516 23.292 13.516 38.245v98.346H243.707V91.156z m541.33 852.04c0 14.953-11.789 27.893-26.742 27.893H270.45c-14.953 0-26.887-12.796-26.887-27.893V541.475c0-14.953 11.934-27.175 26.887-27.175h487.845c14.953 0 26.743 12.078 26.743 27.175v401.72zM974.54 579c0 14.954 1.725 16.679-13.228 16.679h-122.07v-43.853c0-44.86-22.86-91.588-67.576-91.588H283.821c-44.859 0-94.32 46.729-94.32 91.588v43.71H94.177c-14.953 0-39.971-1.726-39.971-16.68V280.803c0-14.953 25.018-37.239 39.97-37.239h867.137c14.953 0 13.228 22.286 13.228 37.239v298.2z m0 0"  /><path d="M706.822 634.5H327.387c-14.953 0-27.03 11.503-27.03 26.456s12.077 26.455 27.03 26.455h379.435c14.953 0 27.03-11.502 27.03-26.455 0-14.953-12.077-26.456-27.03-26.456z m0 0M706.822 790.933H327.387c-14.953 0-27.03 12.077-27.03 27.03 0 14.954 12.077 27.031 27.03 27.031h379.435c14.953 0 27.03-12.077 27.03-27.03 0-14.954-12.077-27.031-27.03-27.031z m0 0"  /></svg>