<?xml version="1.0" standalone="no"?><!DOCTYPE svg PUBLIC "-//W3C//DTD SVG 1.1//EN" "http://www.w3.org/Graphics/SVG/1.1/DTD/svg11.dtd"><svg class="icon" width="32px" height="30.26px" viewBox="0 0 1083 1024" version="1.1" xmlns="http://www.w3.org/2000/svg"><path d="M655.1 534.05c-13.05-5.85-26.1-11.25-39.15-15.75 73.8-40.95 124.2-119.25 124.2-209.7 0-131.85-107.55-239.4-239.4-239.4s-239.4 107.55-239.4 239.4c0 90.45 50.4 168.75 124.2 209.7-162 54-279.9 217.8-279.9 411.75 0 13.5 10.8 24.3 24.3 24.3 13.5 0 24.3-10.8 24.3-24.3 0-210.6 155.7-382.05 346.95-382.05 46.35 0 91.8 9.9 134.1 29.7 12.15 5.4 26.55 0.45 31.95-11.7 5.4-12.15 0-26.1-12.15-31.95z m-345.6-225c0-105.3 85.5-191.25 191.25-191.25s191.25 85.5 191.25 191.25c0 105.3-85.5 191.25-191.25 191.25s-191.25-85.95-191.25-191.25zM683.45 717.2v110.25c0 13.5 10.8 24.3 24.3 24.3 13.5 0 24.3-10.8 24.3-24.3v-110.25c0-13.5-10.8-24.3-24.3-24.3-13.5 0.45-24.3 11.25-24.3 24.3zM816.2 851.75c13.5 0 24.3-10.8 24.3-24.3v-220.5c0-13.5-10.8-24.3-24.3-24.3-13.5 0-24.3 10.8-24.3 24.3v220.5c0.45 13.5 11.25 24.3 24.3 24.3zM925.1 851.75c13.5 0 24.3-10.8 24.3-24.3v-180.9c0-13.5-10.8-24.3-24.3-24.3s-24.3 10.8-24.3 24.3v180.9c0 13.5 10.8 24.3 24.3 24.3zM947.15 888.65h-261.45c-13.5 0-24.3 10.8-24.3 24.3 0 13.5 10.8 24.3 24.3 24.3h261.45c13.5 0 24.3-10.8 24.3-24.3 0-13.5-10.8-24.3-24.3-24.3z" /></svg>