<?xml version="1.0" standalone="no"?><!DOCTYPE svg PUBLIC "-//W3C//DTD SVG 1.1//EN" "http://www.w3.org/Graphics/SVG/1.1/DTD/svg11.dtd"><svg class="icon" width="32px" height="32.00px" viewBox="0 0 1024 1024" version="1.1" xmlns="http://www.w3.org/2000/svg"><path d="M486.4 503.466667c75.093333 0 136.533333-61.44 136.533333-136.533334s-61.44-136.533333-136.533333-136.533333-136.533333 61.44-136.533333 136.533333 61.44 136.533333 136.533333 136.533334z m0-238.933334c56.32 0 102.4 46.08 102.4 102.4s-46.08 102.4-102.4 102.4-102.4-46.08-102.4-102.4 46.08-102.4 102.4-102.4zM273.066667 759.466667H102.4c-13.653333 0-25.6 11.946667-25.6 25.6s11.946667 25.6 25.6 25.6h170.666667c13.653333 0 25.6-11.946667 25.6-25.6s-11.946667-25.6-25.6-25.6z m585.386666 0H682.666667c-13.653333 0-25.6 11.946667-25.6 25.6s11.946667 25.6 25.6 25.6h170.666666c13.653333 0 25.6 11.946667 25.6 25.6s-11.946667 25.6-25.6 25.6H404.48c-39.253333 3.413333-71.68 35.84-71.68 76.8s32.426667 73.386667 71.68 76.8H597.333333c13.653333 0 25.6-11.946667 25.6-25.6s-11.946667-25.6-25.6-25.6H409.6c-13.653333 0-25.6-11.946667-25.6-25.6s11.946667-25.6 25.6-25.6h448.853333c39.253333-3.413333 71.68-35.84 71.68-76.8s-32.426667-73.386667-71.68-76.8z m-372.053333 51.2s358.4-163.84 358.4-450.56C844.8 165.546667 684.373333 8.533333 486.4 8.533333s-358.4 157.013333-358.4 351.573334c0 291.84 358.4 450.56 358.4 450.56z m0-750.933334c168.96 0 307.2 133.12 307.2 298.666667 0 245.76-307.2 384-307.2 384s-307.2-134.826667-307.2-384c0-165.546667 138.24-298.666667 307.2-298.666667z" /></svg>