<?xml version="1.0" standalone="no"?><!DOCTYPE svg PUBLIC "-//W3C//DTD SVG 1.1//EN" "http://www.w3.org/Graphics/SVG/1.1/DTD/svg11.dtd"><svg class="icon" width="32px" height="32.00px" viewBox="0 0 1024 1024" version="1.1" xmlns="http://www.w3.org/2000/svg"><path d="M517.29152 442.789206C581.719536 442.789206 634.179942 391.642323 634.179942 328.709206 634.179942 265.770732 581.719536 214.629204 517.29152 214.629204 452.863501 214.629204 400.39656 265.770732 400.39656 328.709206 400.39656 391.642323 452.858275 442.789206 517.29152 442.789206L517.29152 442.789206ZM517.290986 270.654112C549.723421 270.654112 575.971168 296.941574 575.971168 329.374112 575.971168 361.760698 549.723421 388.094115 517.290986 388.094115 484.909942 388.094115 458.610803 361.760698 458.610803 329.374112 458.610803 296.941574 484.909942 270.654112 517.290986 270.654112L517.290986 270.654112ZM404.155165 615.367203C405.839235 617.786026 407.499229 619.744931 408.848653 621.146586 448.294893 669.263894 488.038464 701.273155 489.764666 702.633437L517.456122 724.82383 545.02479 702.466749C546.749789 701.102813 586.366963 668.712723 625.728941 620.762102 627.073549 619.31665 628.79975 617.320026 630.463357 614.85375 686.753907 540.976214 756.732493 433.939626 772.551194 341.269971 775.597926 320.142986 775.682192 307.349259 775.682192 305.94639 776.20944 236.698443 748.809296 171.618951 698.552026 122.907886 649.888544 75.722578 585.501456 49.74821 517.28639 49.74821 449.348189 49.74821 385.126016 75.722578 336.46735 122.907886 285.936823 171.875677 258.368152 237.298282 258.895402 307.049948 258.895402 308.157155 258.979666 320.994685 261.90482 341.103283 278.893583 440.275046 357.876346 554.916083 404.155165 615.367203L404.155165 615.367203ZM517.290986 121.887231C623.808602 121.887231 711.011741 207.702612 710.240499 314.322316 710.240499 314.322316 710.240499 323.955843 707.918147 339.956486 695.181334 414.614157 634.999693 507.094291 586.758806 570.252998 586.367254 571.015088 585.591699 571.734659 585.216326 572.118432 551.639814 613.330224 517.290986 641.2136 517.290986 641.2136 517.290986 641.2136 482.93784 613.713994 449.364566 572.496752 448.985958 572.118432 448.214717 571.355248 447.818848 570.631318 399.577965 507.856381 339.39632 414.992477 326.658432 340.680419 324.341472 324.719027 324.341472 315.042977 324.341472 315.042977 323.565914 208.430904 410.769056 121.887231 517.290986 121.887231L517.290986 121.887231ZM238.612664 958.251789 694.258224 958.251789 876.516448 958.251789C931.393533 958.251789 976.86328 916.255427 976.86328 863.125894 976.86328 809.996365 931.393533 768 876.516448 768L606.51271 768 449.930899 768 147.483553 768C126.866811 768 111.136719 753.471514 111.136719 736.874106 111.136719 720.276698 126.866811 705.748211 147.483553 705.748211L261.394942 705.748211C279.068054 705.748211 293.394942 691.421322 293.394942 673.748211 293.394942 656.075098 279.068054 641.748211 261.394942 641.748211L147.483553 641.748211C92.606467 641.748211 47.136719 683.744573 47.136719 736.874106 47.136719 790.003635 92.606467 832 147.483553 832L449.930899 832 606.51271 832 876.516448 832C897.13319 832 912.86328 846.528486 912.86328 863.125894 912.86328 879.723302 897.13319 894.251789 876.516448 894.251789L694.258224 894.251789 238.612664 894.251789C220.939552 894.251789 206.612664 908.578678 206.612664 926.251789 206.612664 943.924902 220.939552 958.251789 238.612664 958.251789L238.612664 958.251789Z" /></svg>