<?xml version="1.0" standalone="no"?><!DOCTYPE svg PUBLIC "-//W3C//DTD SVG 1.1//EN" "http://www.w3.org/Graphics/SVG/1.1/DTD/svg11.dtd"><svg class="icon" width="32px" height="32.00px" viewBox="0 0 1024 1024" version="1.1" xmlns="http://www.w3.org/2000/svg"><path d="M322.056 689.636c-67.387 0-121.932 55.012-121.937 122.85 0 67.848 54.554 122.86 121.936 122.86 54.555 0 103.145-37.135 117.352-90.77l2.294-8.249 144.86 0 2.289 8.249c14.669 53.635 62.803 91.227 117.352 91.227 67.387 0 121.941-55.012 120.565-123.316 0-67.838-54.554-122.85-121.935-122.85-56.388 0-105.436 38.966-118.272 94.891l-1.833 8.249L442.164 792.777l-1.837-8.249C427.49 728.602 378.899 689.636 322.056 689.636L322.056 689.636zM706.201 892.256c-43.544 0-78.84-35.302-78.841-79.309 0-43.551 35.297-79.304 78.841-79.304 43.551 0 78.848 35.297 78.848 79.304C785.048 856.503 749.751 892.256 706.201 892.256L706.201 892.256zM322.517 892.256c-43.551 0-78.848-35.758-78.848-79.309s35.297-79.304 78.848-79.304c43.546 0 78.842 35.297 78.842 79.304C401.36 856.503 366.068 892.256 322.517 892.256L322.517 892.256zM807.509 575.497c11.924 0 21.548-9.629 21.547-21.548 0-12.38-9.628-22.003-21.542-22.003L699.328 531.946 699.328 423.304c0-12.38-9.629-22.003-21.547-22.003-11.918 0-21.542 10.081-21.542 22.003l0 130.189c0 12.38 9.623 22.004 21.542 22.004L807.509 575.497 807.509 575.497zM158.407 107.457c-47.672 0-86.183 39.423-85.727 87.557L72.68 814.78c0 12.38 9.63 22.003 21.548 22.003 11.924 0 21.547-10.081 21.547-22.003L115.775 194.553c0-24.293 19.252-44.007 43.088-44.007l470.785 0c15.132 0 27.05 12.38 27.05 27.049l0 114.144 0 0.456c0.456 0.918 0.918 1.837 0.918 3.208l0 1.375c0 1.374 0 2.751 0.456 3.207 0 0.463 0.919 1.376 1.375 2.295l1.375 2.746c0.458 0.919 0.915 1.838 1.376 2.295 0.458 0.919 1.371 1.375 2.747 2.293l0.918 0.458c0.918 0.919 1.837 1.375 2.752 2.294l212.701 107.728 1.833 0.914c21.085 16.044 31.632 38.505 31.632 67.843l0 328.683c0 11.918 9.624 21.542 21.547 21.542 11.918 0 21.542-9.624 21.542-21.542L957.87 488.853c0-44.007-18.795-81.137-52.255-104.973-0.918-0.919-1.837-1.376-2.751-1.833L699.329 279.364 699.329 178.057c0-38.966-31.632-70.6-70.137-70.6L158.407 107.457 158.407 107.457z" /></svg>