<?xml version="1.0" encoding="UTF-8"?>
<!DOCTYPE svg PUBLIC "-//W3C//DTD SVG 1.1//EN" "http://www.w3.org/Graphics/SVG/1.1/DTD/svg11.dtd">
<!-- Creator: CorelDRAW -->
<svg xmlns="http://www.w3.org/2000/svg" xml:space="preserve" width="10.651mm" height="10.7696mm" style="shape-rendering:geometricPrecision; text-rendering:geometricPrecision; image-rendering:optimizeQuality; fill-rule:evenodd; clip-rule:evenodd"
viewBox="0 0 0.856196 0.86573"
 xmlns:xlink="http://www.w3.org/1999/xlink">
 <defs>
  <style type="text/css">
   <![CDATA[
    .fil0 {fill:#0093DD}
   ]]>
  </style>
 </defs>
 <g id="图层_x0020_1">
  <metadata id="CorelCorpID_0Corel-Layer"/>
  <g id="_136687216">
   <g>
    <path id="_136688680" class="fil0" d="M0.245034 0.0925731c0,0 0.126151,-0.149591 0.279343,-0.0684893 0,0 0.0568172,0.0352093 0.138474,0.13775 0,0 -0.124286,-0.039944 -0.216923,-0.0309488l0 0 -0.144004 0.0142364 0.144004 -0.0142364 -0.144004 0.0142364 -0.0568895 -0.0525486 0 0z"/>
    <path id="_136688776" class="fil0" d="M0.182421 0.142573c0,0 0.0791405,0.097131 0.336353,0.0854428 0.257221,-0.0116962 0.356144,0.0989236 0.334561,0.255412 0,0 -0.00668816,0.0598719 -0.0310533,0.0792932 0,0 -0.0867611,-0.176424 -0.374553,-0.178217 -0.287792,-0.00180066 -0.378628,-0.134004 -0.378628,-0.134004l0.107847 -0.10267 0.00547432 -0.00525728z"/>
   </g>
   <g>
    <path id="_136688800" class="fil0" d="M0.61117 0.773157c0,0 -0.126159,0.149591 -0.279351,0.0684893 0,0 -0.0568091,-0.0352093 -0.138474,-0.13775 0,0 0.124294,0.039944 0.216923,0.0309488l0 0 0.144004 -0.0142364 -0.144004 0.0142364 0.144004 -0.0142364 0.0568976 0.0525486 0 0z"/>
    <path id="_136689136" class="fil0" d="M0.673783 0.723157c0,0 -0.0791485,-0.097131 -0.336361,-0.0854428 -0.257213,0.0116962 -0.356144,-0.0989236 -0.334561,-0.255412 0,0 0.00669619,-0.0598719 0.0310613,-0.0792932 0,0 0.0867531,0.176424 0.374545,0.178217 0.2878,0.00180066 0.378628,0.134004 0.378628,0.134004l-0.107838 0.10267 -0.00547432 0.00525728z"/>
   </g>
  </g>
 </g>
</svg>
