<?xml version="1.0" standalone="no"?><!DOCTYPE svg PUBLIC "-//W3C//DTD SVG 1.1//EN" "http://www.w3.org/Graphics/SVG/1.1/DTD/svg11.dtd"><svg class="icon" width="128px" height="128.00px" viewBox="0 0 1024 1024" version="1.1" xmlns="http://www.w3.org/2000/svg"><path d="M832 128h-128v-32a32 32 0 0 0-64 0V128H352v-32a32 32 0 0 0-64 0V128H192a128 128 0 0 0-128 128v576a128 128 0 0 0 128 128h640a128 128 0 0 0 128-128V256a128 128 0 0 0-128-128z m64 704a64 64 0 0 1-64 64H192a64 64 0 0 1-64-64V256a64 64 0 0 1 64-64h96v32a32 32 0 0 0 64 0V192H640v32a32 32 0 0 0 64 0V192h128a64 64 0 0 1 64 64v576z"  /><path d="M352 352h-64a32 32 0 0 0 0 64h64a32 32 0 0 0 0-64zM544 352h-64a32 32 0 0 0 0 64h64a32 32 0 0 0 0-64zM736 352h-64a32 32 0 0 0 0 64h64a32 32 0 0 0 0-64zM352 512h-64a32 32 0 0 0 0 64h64a32 32 0 0 0 0-64zM544 512h-64a32 32 0 0 0 0 64h64a32 32 0 0 0 0-64zM736 512h-64a32 32 0 0 0 0 64h64a32 32 0 0 0 0-64zM352 672h-64a32 32 0 0 0 0 64h64a32 32 0 0 0 0-64zM544 672h-64a32 32 0 0 0 0 64h64a32 32 0 0 0 0-64zM736 672h-64a32 32 0 0 0 0 64h64a32 32 0 0 0 0-64z"  /></svg>