<?xml version="1.0" standalone="no"?><!DOCTYPE svg PUBLIC "-//W3C//DTD SVG 1.1//EN" "http://www.w3.org/Graphics/SVG/1.1/DTD/svg11.dtd"><svg t="1510304902846" class="icon" style="" viewBox="0 0 1024 1024" version="1.1" xmlns="http://www.w3.org/2000/svg" p-id="1550" xmlns:xlink="http://www.w3.org/1999/xlink" width="200" height="200"><defs><style type="text/css"></style></defs><path d="M286.222 842.281c-90.215 0-179.207-57.126-179.207-57.126V647.598c159.614 145.313 264.137 82.057 264.137 16.33 0-65.284-60.02-84.05-127.385-118.75-67.762-34.687-137.169-75.51-137.169-183.651 0-108.169 113.084-162.031 199.216-162.031 86.146 0 162.079 41.226 162.079 41.226v120.805c-104.51-88.576-240.859-57.556-240.859 7.755 0 46.933 92.672 82.022 131.448 100.393 38.789 18.37 126.962 71.42 126.962 192.239-0.416 151.804-108.994 180.367-199.222 180.367zM812.83 596.992c-42.018 0-75.92-33.86-75.92-75.503 0-41.615 33.902-75.49 75.92-75.49 42.059 0 75.946 33.875 75.946 75.49 0 41.643-33.88 75.503-75.946 75.503z m131.877-235.07S830.41 277.437 680.571 337.02v508.13H564.224V241.117s169.41-95.901 380.477 0v120.805h0.007z" fill="" p-id="1551"></path></svg>