<?xml version="1.0" standalone="no"?><!DOCTYPE svg PUBLIC "-//W3C//DTD SVG 1.1//EN" "http://www.w3.org/Graphics/SVG/1.1/DTD/svg11.dtd"><svg t="1513319399608" class="icon" style="" viewBox="0 0 1024 1024" version="1.1" xmlns="http://www.w3.org/2000/svg" p-id="67546" xmlns:xlink="http://www.w3.org/1999/xlink" width="32" height="32"><defs><style type="text/css"></style></defs><path d="M538.65123 500.17624V216.02126a25.594936 25.594936 0 0 0-51.189872 0v291.782271a25.594936 25.594936 0 0 0 4.453519 14.384354l165.650426 241.053108a25.594936 25.594936 0 0 0 42.282834-28.768708z" p-id="67547"></path><path d="M825.160944 30.713923a9.111797 9.111797 0 0 0-16.278379-1.382126l-23.137823 39.87691a7.422531 7.422531 0 0 1-11.466531 2.866633l-3.276152-1.689266A510.158265 510.158265 0 0 0 481.728092 0.972608a493.214418 493.214418 0 0 0-88.20015 13.309366l-2.764253 0.716659c-11.722481 2.969013-23.85448 6.091595-35.576961 10.237974l-1.586886 0.358329a504.732139 504.732139 0 0 0-269.668246 205.885666l-1.791645 3.020202-1.535697 2.405924a74.122935 74.122935 0 0 0-4.351139 7.268962A366.826623 366.826623 0 0 0 66.629419 261.068348l-0.870228 1.996405A510.158265 510.158265 0 0 0 2.898029 567.900441v1.689266c1.074987 9.726076 2.661873 19.91286 4.351139 30.355594v0.409519l0.614278 1.894025a299.819081 299.819081 0 0 0 6.296354 30.713923 507.598772 507.598772 0 0 0 160.27549 266.699234l0.614278 0.563088a534.575834 534.575834 0 0 0 68.799188 50.626784 502.275025 502.275025 0 0 0 208.752299 72.791998 19.145012 19.145012 0 0 0 5.630886 0.255949 29.792506 29.792506 0 0 0 27.74491-25.594936 10.954633 10.954633 0 0 0 0-2.252354l-0.716658-11.261772a10.237974 10.237974 0 0 0-2.149974-5.682076l-3.224962-4.044a30.150835 30.150835 0 0 0-20.16881-11.159392 443.611431 443.611431 0 0 1-112.05463-28.103239l-1.382126-1.228557h-0.819038a5.682076 5.682076 0 0 0-2.047595-0.358329 11.620101 11.620101 0 0 1-5.477317-1.535697l-18.018835-9.265366h-0.511898l-1.330937-0.716659a438.543634 438.543634 0 0 1-42.026885-23.086632A453.235127 453.235127 0 0 1 128.415595 276.732448a445.812596 445.812596 0 0 1 103.813061-117.122427l1.484506-1.126177a451.904191 451.904191 0 0 1 506.523784-35.321012l1.638076 0.972608a10.237974 10.237974 0 0 1 3.634481 14.026025l-21.602126 35.83291a10.237974 10.237974 0 0 0 10.237974 15.356962l123.418782-19.656911a12.899848 12.899848 0 0 0 9.777265-5.886835 12.387949 12.387949 0 0 0 0.409519-11.005823zM700.718365 959.758912a30.253214 30.253214 0 0 0-31.430582-20.16881 28.359189 28.359189 0 0 0-6.705873 1.689266h-0.307139a266.187335 266.187335 0 0 1-26.260405 8.190379 29.587746 29.587746 0 0 0-18.070024 14.179595 30.713923 30.713923 0 0 0 11.312961 41.617366 30.253214 30.253214 0 0 0 16.636709 3.788051h1.586886l0.767848-0.30714 1.382126-0.409519a20.475949 20.475949 0 0 0 2.559494-0.819038l2.303544-0.665468c9.060607-2.610683 18.428354-5.118987 27.130633-8.446329a31.328202 31.328202 0 0 0 17.558126-15.356962 31.584151 31.584151 0 0 0 1.382126-23.189012zM839.289349 870.893294a31.277012 31.277012 0 0 0-26.362785-11.057013 27.89848 27.89848 0 0 0-16.124809 6.910633 239.005513 239.005513 0 0 1-22.011645 16.431949 29.997265 29.997265 0 0 0-12.490329 19.554531 30.713923 30.713923 0 0 0 5.118987 22.779493 27.540151 27.540151 0 0 0 9.777266 8.702279 29.331797 29.331797 0 0 0 32.505568-1.382127l8.753469-6.449924c5.374937-3.99281 10.954633-8.088 16.073619-12.132a31.328202 31.328202 0 0 0 4.863038-42.794733zM939.723878 741.024588a29.382987 29.382987 0 0 0-18.786683-4.248759 30.713923 30.713923 0 0 0-22.984253 14.537924c-4.709468 7.88324-9.879645 15.664101-15.356962 23.137822a31.021062 31.021062 0 0 0-4.811848 23.342581 29.280607 29.280607 0 0 0 12.23438 18.684304 11.773671 11.773671 0 0 0 2.969012 1.842835 30.713923 30.713923 0 0 0 39.518582-9.060607c5.989215-8.19038 11.159392-16.483139 17.404556-26.516354a31.584151 31.584151 0 0 0-10.186784-41.719746zM990.96494 584.895478a23.803291 23.803291 0 0 0-9.214177-0.460708 29.894885 29.894885 0 0 0-26.823493 23.7521c-1.996405 9.009417-4.09519 17.865265-6.654684 26.977063a30.355594 30.355594 0 0 0 14.179595 34.399594 51.497011 51.497011 0 0 0 6.296354 2.713063h0.614279a32.351999 32.351999 0 0 0 10.545113 0.767848 30.406784 30.406784 0 0 0 26.362784-21.960455c2.764253-10.493924 5.118987-20.475949 7.524911-30.253214a29.178227 29.178227 0 0 0-3.583291-22.114025 31.072252 31.072252 0 0 0-19.247391-13.821266zM1023.880027 477.908646c-0.921418-10.237974-1.894025-20.475949-3.378531-30.713923a30.099645 30.099645 0 0 0-32.659139-26.158025h-1.177367a30.253214 30.253214 0 0 0-25.902075 34.041265 255.94936 255.94936 0 0 1 2.508304 27.181822v0.563088a32.607949 32.607949 0 0 0 15.356961 23.649721 28.20562 28.20562 0 0 0 17.199797 3.839241h0.460709a30.304404 30.304404 0 0 0 27.591341-32.403189zM916.381296 308.879688c3.788051 7.678481 7.83205 15.356962 11.159392 23.393772a31.225822 31.225822 0 0 0 12.336759 14.179594 24.673518 24.673518 0 0 0 12.695088 4.453519v0.409519l5.118988-0.460709a27.437771 27.437771 0 0 0 9.367746-2.764253 30.713923 30.713923 0 0 0 16.22719-17.097417 30.150835 30.150835 0 0 0-0.563089-23.086632c-4.607088-10.237974-8.855848-19.196202-13.514126-28.410379a30.202025 30.202025 0 0 0-29.894885-16.27838 24.827088 24.827088 0 0 0-11.108203 3.429722 29.331797 29.331797 0 0 0-14.845063 17.455746 28.666328 28.666328 0 0 0 2.149975 23.189012z" p-id="67548"></path></svg>