<?xml version="1.0" standalone="no"?><!DOCTYPE svg PUBLIC "-//W3C//DTD SVG 1.1//EN" "http://www.w3.org/Graphics/SVG/1.1/DTD/svg11.dtd"><svg t="1513317270935" class="icon" style="" viewBox="0 0 1024 1024" version="1.1" xmlns="http://www.w3.org/2000/svg" p-id="36558" xmlns:xlink="http://www.w3.org/1999/xlink" width="32" height="32"><defs><style type="text/css"></style></defs><path d="M511.939185 915.141466l-12.284594-6.93289c-87.816605-49.746526-162.01069-112.507424-214.554698-181.471434C218.811735 639.650315 185.241953 542.711486 185.241953 438.474878c0-43.665043 8.635705-86.23542 25.663855-126.494833 16.420002-38.799857 40.016154-73.829196 69.937047-103.871719 30.042523-30.164153 64.950232-53.881934 103.75009-70.423565 40.381043-17.27141 83.194679-25.907115 127.224611-25.907115 87.330087 0 169.308469 33.934672 230.9747 95.722532 61.666231 61.666231 95.722532 143.766243 95.722532 230.9747 0 104.966386-33.691412 202.148474-100.1012 288.870412-52.908897 69.207269-125.035277 130.022093-214.311438 180.741656l-12.162965 7.05452z m0-753.495665c-73.707566 0-143.279724 29.069486-195.702102 81.735123-25.420596 25.542226-45.367858 55.21986-59.355268 88.181494-14.473928 34.056301-21.771707 70.058677-21.771707 107.03409 0 93.04668 30.164153 179.890248 89.64105 257.976482 46.097636 60.449935 110.682979 116.034683 187.188027 161.280912 77.721345-45.854377 140.603872-99.85794 187.066398-160.551134 59.598527-77.842974 89.76268-164.808172 89.762679-258.70626 0-73.950826-28.826226-143.522984-81.126974-195.823732-52.179119-52.422378-121.751277-81.126975-195.702103-81.126975z m0 0" p-id="36559"></path><path d="M507.925407 594.282456c-84.046086 0-152.401948-68.355862-152.401948-152.401948S423.879321 289.47856 507.925407 289.47856c13.74415 0 24.934078 11.189928 24.934077 24.934078s-11.189928 24.934078-24.934077 24.934078c-56.557786 0-102.655422 46.097636-102.655422 102.655422 0 56.557786 46.097636 102.655422 102.655422 102.655422 56.557786 0 102.655422-46.097636 102.655422-102.655422 0-27.123411-10.46015-52.665637-29.434375-71.883121-9.608742-9.852001-9.487112-25.542226 0.24326-35.272598 9.852001-9.608742 25.542226-9.487112 35.272597 0.364889 28.218078 28.704597 43.665043 66.653047 43.665044 106.91246 0.12163 83.802827-68.355862 152.158689-152.401948 152.158688z m0 0" p-id="36560"></path></svg>