<?xml version="1.0" standalone="no"?><!DOCTYPE svg PUBLIC "-//W3C//DTD SVG 1.1//EN" "http://www.w3.org/Graphics/SVG/1.1/DTD/svg11.dtd"><svg t="1513317904914" class="icon" style="" viewBox="0 0 1024 1024" version="1.1" xmlns="http://www.w3.org/2000/svg" p-id="46890" xmlns:xlink="http://www.w3.org/1999/xlink" width="32" height="32"><defs><style type="text/css"></style></defs><path d="M656.878933 603.511467C639.3344 603.511467 624.503467 588.424533 624.503467 570.641067 624.503467 525.653333 624.503467 480.682667 624.503467 435.694933 624.503467 393.3184 689.271467 393.386667 689.271467 435.694933 689.271467 469.725867 689.271467 503.739733 689.271467 537.770667 730.641067 537.770667 772.010667 537.770667 813.380267 537.770667 855.125333 537.770667 855.057067 603.511467 813.380267 603.511467 761.224533 603.511467 709.051733 603.511467 656.878933 603.511467ZM912.3328 695.057067C894.446933 695.057067 879.957333 680.328533 879.957333 662.1696L879.957333 481.399467C879.2576 476.7744 874.683733 452.9152 852.3776 441.105067 832.597333 430.626133 777.352533 405.282133 696.814933 369.7664 656.162133 351.8464 629.896533 311.176533 629.896533 266.1888L629.896533 215.313067C629.8112 196.6592 622.1824 121.1392 588.526933 121.1392L201.762133 121.1392C193.757867 121.856 144.196267 129.9968 144.196267 214.698667L144.196267 794.197333C145.015467 803.413333 148.0704 814.506667 150.971733 819.2512L227.515733 819.2512C241.578667 771.2768 284.910933 735.965867 336.674133 735.965867 388.437333 735.965867 431.786667 771.2768 445.8496 819.2512L577.058133 819.2512C591.138133 771.293867 634.4704 736 686.216533 736 737.962667 736 781.294933 771.293867 795.374933 819.2512L856.558933 819.2512C860.757333 819.456 869.614933 818.500267 874.359467 813.806933 878.984533 809.233067 879.957333 800.341333 879.957333 793.685333 879.957333 775.509333 894.446933 760.797867 912.3328 760.797867 930.218667 760.797867 944.708267 775.509333 944.708267 793.685333 944.708267 829.457067 930.4576 850.551467 918.493867 861.934933 896.426667 882.944 868.386133 885.026133 858.129067 885.026133 856.302933 885.026133 855.057067 884.957867 854.4768 884.923733L795.409067 884.992C781.346133 932.983467 737.9968 968.311467 686.216533 968.311467 634.436267 968.311467 591.086933 933.000533 577.024 884.992L445.8496 884.992C431.786667 932.9664 388.437333 968.277333 336.674133 968.277333 284.910933 968.277333 241.578667 932.9664 227.515733 884.992L147.797333 884.992C104.448 884.992 82.261333 841.1136 79.496533 797.610667L79.445333 214.698667C79.445333 93.047467 158.5152 57.309867 200.311467 55.415467L588.526933 55.3984C672.3072 55.3984 694.664533 155.921067 694.664533 215.313067L694.664533 266.1888C694.664533 284.9792 705.6384 301.960533 722.619733 309.4528 780.561067 335.018667 855.296 368.4864 882.3296 382.805333 927.522133 406.7328 942.7456 453.2224 944.605867 476.910933L944.708267 479.5392 944.708267 662.1696C944.708267 680.328533 930.218667 695.057067 912.3328 695.057067ZM686.216533 902.570667C713.591467 902.570667 735.863467 879.957333 735.863467 852.155733 735.863467 824.354133 713.591467 801.7408 686.216533 801.7408 658.8416 801.7408 636.5696 824.354133 636.5696 852.155733 636.5696 879.957333 658.8416 902.570667 686.216533 902.570667ZM336.674133 902.519467C364.066133 902.519467 386.338133 879.906133 386.338133 852.1216 386.338133 824.32 364.066133 801.706667 336.674133 801.706667 309.2992 801.706667 287.0272 824.32 287.0272 852.1216 287.0272 879.906133 309.2992 902.519467 336.674133 902.519467Z" p-id="46891"></path></svg>