<?xml version="1.0" standalone="no"?><!DOCTYPE svg PUBLIC "-//W3C//DTD SVG 1.1//EN" "http://www.w3.org/Graphics/SVG/1.1/DTD/svg11.dtd"><svg t="1513317080374" class="icon" style="" viewBox="0 0 1024 1024" version="1.1" xmlns="http://www.w3.org/2000/svg" p-id="33336" xmlns:xlink="http://www.w3.org/1999/xlink" width="32" height="32"><defs><style type="text/css"></style></defs><path d="M819.2 341.333333C819.2 170.666667 682.666667 34.133333 512 34.133333S204.8 170.666667 204.8 341.333333c0 157.013333 122.88 286.72 273.066667 307.2v68.266667h-136.533334c-20.48 0-34.133333 13.653333-34.133333 34.133333s13.653333 34.133333 34.133333 34.133334h136.533334v157.013333c0 20.48 13.653333 34.133333 34.133333 34.133333s34.133333-13.653333 34.133333-34.133333v-157.013333h136.533334c20.48 0 34.133333-13.653333 34.133333-34.133334s-13.653333-34.133333-34.133333-34.133333h-136.533334v-68.266667c150.186667-20.48 273.066667-150.186667 273.066667-307.2zM512 580.266667C382.293333 580.266667 273.066667 471.04 273.066667 341.333333S382.293333 102.4 512 102.4 750.933333 211.626667 750.933333 341.333333 641.706667 580.266667 512 580.266667z" fill="" p-id="33337"></path></svg>