<?xml version="1.0" standalone="no"?><!DOCTYPE svg PUBLIC "-//W3C//DTD SVG 1.1//EN" "http://www.w3.org/Graphics/SVG/1.1/DTD/svg11.dtd"><svg t="1513317005993" class="icon" style="" viewBox="0 0 1024 1024" version="1.1" xmlns="http://www.w3.org/2000/svg" p-id="29800" xmlns:xlink="http://www.w3.org/1999/xlink" width="32" height="32"><defs><style type="text/css"></style></defs><path d="M504.32 535.04c-128 0-232.96-102.4-232.96-230.4 0-125.44 104.96-230.4 232.96-230.4s232.96 102.4 232.96 230.4-104.96 230.4-232.96 230.4z m0-407.04c-99.84 0-181.76 79.36-181.76 179.2 0 97.28 81.92 179.2 181.76 179.2s181.76-79.36 181.76-179.2-81.92-179.2-181.76-179.2zM588.8 947.2h-153.6c-153.6 0-286.72 0-286.72-102.4v-15.36c0-153.6 122.88-268.8 286.72-268.8h153.6c163.84 0 286.72 115.2 286.72 268.8v15.36c0 102.4-138.24 102.4-286.72 102.4z m-153.6-332.8c-133.12 0-235.52 92.16-235.52 217.6v12.8c0 51.2 110.08 51.2 235.52 51.2h153.6c115.2 0 235.52 0 235.52-51.2v-15.36c0-122.88-102.4-217.6-235.52-217.6h-153.6z" p-id="29801"></path></svg>