<?xml version="1.0" standalone="no"?><!DOCTYPE svg PUBLIC "-//W3C//DTD SVG 1.1//EN" "http://www.w3.org/Graphics/SVG/1.1/DTD/svg11.dtd"><svg t="1513400277650" class="icon" style="" viewBox="0 0 1024 1024" version="1.1" xmlns="http://www.w3.org/2000/svg" p-id="1055" xmlns:xlink="http://www.w3.org/1999/xlink" width="500" height="500"><defs><style type="text/css"></style></defs><path d="M1019.448889 510.862222c0 282.168889-228.693333 510.862222-509.724445 510.862222C228.693333 1021.724444 0 793.031111 0 510.862222S228.693333 0 509.724444 0c282.168889 0 509.724444 228.693333 509.724445 510.862222zM446.008889 398.222222c0-69.404444 23.893333-131.982222 64.853333-182.044444-145.635556 13.653333-259.413333 136.533333-259.413333 286.72 0 159.288889 128.568889 287.857778 286.72 287.857778 89.884444 0 182.044444-40.96 234.382222-105.813334-9.102222 1.137778-29.582222 1.137778-38.684444 1.137778-160.426667 0-287.857778-129.706667-287.857778-287.857778z m84.195555 58.026667l35.271112-26.168889 35.271111 26.168889-13.653334-43.235556 30.72-23.893333H580.266667l-13.653334-37.546667-13.653333 37.546667h-37.546667l30.72 23.893333-15.928889 43.235556z m164.977778 26.168889l-13.653333 37.546666h-37.546667l30.72 23.893334-13.653333 43.235555 35.271111-26.168889 35.271111 26.168889-13.653333-43.235555 30.72-23.893334h-37.546667l-15.928889-37.546666z m104.675556-221.866667h-52.337778L728.177778 208.213333l-19.342222 52.337778h-52.337778l42.097778 32.995556-19.342223 59.164444 48.924445-36.408889 48.924444 36.408889-19.342222-59.164444 42.097778-32.995556z" fill="#8A92C7" p-id="1056"></path></svg>